# xmcd
#
# Track frame offsets:
#	150
#	23800
#	42700
#	54025
#	85150
#	98862
#	107725
#	127750
#	145150
#	158050
#	191650
#	206200
#	218725
#	252325
#	267550
#	283375
#	317500
#	329650
#
# Disc length: 4738 seconds
#
# Revision: 1
# Processed by: cddbd v1.5.2PL0 Copyright (c) Steve Scherf et al.
# Submitted via: audiograbber 1.83.01
#
DISCID=0f128012
DTITLE=Gioacchino Rossini - Six Sonatas For Strings [Chamber Orchestra Kremlin 
DTITLE=Misha Rachlevsky]
DYEAR=1993
DGENRE=Classical
TTITLE0=Sonata No. 1 in G major - I. Moderato
TTITLE1=Sonata No. 1 in G major - II. Andantino
TTITLE2=Sonata No. 1 in G major - III. Allegro
TTITLE3=Sonata No. 2 in A major - I. Allegro
TTITLE4=Sonata No. 2 in A major - II. Andantino
TTITLE5=Sonata No. 2 in A major - III. Allegro
TTITLE6=Sonata No. 3 in C major - I. Allegro
TTITLE7=Sonata No. 3 in C major - II. Andante
TTITLE8=Sonata No. 3 in C major - III. Moderato
TTITLE9=Sonata No. 4 in B flat major - I. Allegro vivace
TTITLE10=Sonata No. 4 in B-flat major - II. Andantino
TTITLE11=Sonata No. 4 in B-flat major - III. Allegretto
TTITLE12=Sonata No. 5 in E-flat major - I. Allegro vivace
TTITLE13=Sonata No. 5 in E-flat major - II. Andantino
TTITLE14=Sonata No. 5 in E-flat major - III. Allegretto
TTITLE15=Sonata No. 6 in D-major - I. Allegro spiritoso
TTITLE16=Sonata No. 6 in D-major - II. Andante assai
TTITLE17=Sonata No. 6 in D-major - III. Tempesta. Allegro
EXTD=
EXTT0=
EXTT1=
EXTT2=
EXTT3=
EXTT4=
EXTT5=
EXTT6=
EXTT7=
EXTT8=
EXTT9=
EXTT10=
EXTT11=
EXTT12=
EXTT13=
EXTT14=
EXTT15=
EXTT16=
EXTT17=
PLAYORDER=
